<?xml version="1.0" standalone="no"?>
<!DOCTYPE svg PUBLIC "-//W3C//DTD SVG 20010904//EN"
        "http://www.w3.org/TR/2001/REC-SVG-20010904/DTD/svg10.dtd">
<svg version="1.0" xmlns="http://www.w3.org/2000/svg"
     width="128.000000pt" height="128.000000pt" viewBox="0 0 128.000000 128.000000"
     preserveAspectRatio="xMidYMid meet">

    <g transform="translate(0.000000,128.000000) scale(0.100000,-0.100000)"
       fill="#02884D" stroke="none">
        <path d="M523 1155 c-205 -45 -372 -225 -405 -437 -44 -285 158 -556 445 -600
226 -34 454 87 552 294 189 399 -160 837 -592 743z m475 -337 c2 -22 -1 -38
-7 -38 -7 0 -11 -36 -11 -98 0 -89 -2 -100 -22 -119 -13 -12 -100 -53 -195
-92 l-172 -71 -124 0 c-111 0 -127 2 -151 21 -25 20 -26 24 -26 129 0 88 -3
109 -16 114 -11 4 -14 17 -12 48 l3 43 205 52 205 51 160 -1 160 -2 3 -37z"/>
        <path d="M788 712 l-128 -46 0 -88 c0 -48 1 -88 3 -88 2 0 59 24 126 52 87 37
126 59 130 73 3 11 4 48 1 81 l-5 62 -127 -46z"/>
        <path d="M340 576 c0 -46 3 -91 6 -100 5 -13 26 -16 125 -16 141 0 139 -2 139
119 l0 81 -135 0 -135 0 0 -84z"/>
    </g>
</svg>
