<svg xmlns="http://www.w3.org/2000/svg" shape-rendering="geometricPrecision" text-rendering="geometricPrecision" image-rendering="optimizeQuality" fill-rule="evenodd" clip-rule="evenodd" viewBox="0 0 513 357.071"><path fill="#fff" fill-rule="nonzero" d="M28.477.32h456.044c15.488 0 28.159 12.672 28.159 28.16v300.111c0 15.488-12.671 28.16-28.159 28.16H28.477c-15.486 0-28.157-12.672-28.157-28.16V28.48C.32 12.992 12.991.32 28.477.32z"/><path fill="#0B4EA2" fill-rule="nonzero" d="M.32 118.535h512.36v210.056c0 15.488-12.671 28.16-28.159 28.16H28.477c-15.486 0-28.157-12.672-28.157-28.16V118.535z"/><path fill="#EE1C25" fill-rule="nonzero" d="M.32 238.536h512.36v90.055c0 15.488-12.671 28.16-28.159 28.16H28.477c-15.486 0-28.157-12.672-28.157-28.16v-90.055z"/><path fill="#EE1C25" fill-rule="nonzero" d="M220.4 85.834s2.8 28.051 2.8 84.151c-.4 57.301-43.25 86.3-74.701 101.551-31.449-15.251-74.3-44.25-74.701-101.551 0-56.1 2.801-84.151 2.801-84.151H220.4z"/><path fill="#fff" fill-rule="nonzero" d="M142.149 238.536v-70.151c-23.75 0-30.501 2.1-37.601 4.25.332-3.556.501-7.187.501-10.774 0-3.589-.169-7.218-.495-10.777 7.1 2.15 13.85 4.25 37.6 4.25v-19.501c-7.501 0-17.851.301-29.749 4.351.328-3.567.497-7.198.497-10.799 0-3.602-.169-7.231-.495-10.804 11.9 3.998 22.249 4.3 29.75 4.3 0-5.651-1.751-17.8-3.951-27.851 3.417.307 6.861.463 10.294.463 3.431 0 6.878-.156 10.294-.455-2.199 10.051-3.95 22.2-3.95 27.851 7.501 0 17.851-.3 29.751-4.3a118.274 118.274 0 00-.499 10.796c0 3.601.171 7.232.497 10.806-11.9-4.05-22.251-4.35-29.75-4.35v19.5c23.75 0 30.5-2.1 37.6-4.25a119.515 119.515 0 00-.494 10.77c0 3.587.171 7.218.496 10.777-7.1-2.15-13.85-4.25-37.601-4.25v70.151l-12.695-.003z"/><path fill="#0B4EA2" fill-rule="nonzero" d="M89.633 223.752c4.637-10.202 11.881-16.767 20.021-16.767 5.803 0 11.436 3.408 15.944 9.648 5.533-12.987 13.978-20.569 22.902-20.569 8.923 0 17.368 7.582 22.901 20.571 4.509-6.242 10.142-9.65 15.945-9.65 8.139 0 15.383 6.564 20.021 16.765-15.428 23.548-39.343 38.319-58.868 47.786-19.523-9.467-43.44-24.238-58.866-47.784z"/><path fill="#fff" fill-rule="nonzero" d="M223.078 85.581c.009.083 2.822 28.271 2.822 84.404l-.01.011c-.205 29.428-11.307 51.584-26.393 68.337-14.979 16.636-33.856 27.885-49.827 35.628l-1.171.569-1.171-.569c-15.97-7.743-34.849-18.994-49.826-35.628-15.085-16.753-26.187-38.909-26.393-68.337l-.01-.011c0-56.133 2.813-84.321 2.821-84.404l.236-2.446h148.686l.236 2.446zm-2.569 84.404h-.009c0-46.531-1.909-73.557-2.563-81.45H79.06c-.652 7.893-2.561 34.919-2.561 81.45h-.011c.199 27.868 10.722 48.86 25.022 64.741 14.046 15.6 31.766 26.329 46.989 33.812 15.224-7.483 32.942-18.212 46.991-33.812 14.3-15.881 24.823-36.873 25.019-64.741z"/><rect fill="none" stroke="#CCC" stroke-width=".64" stroke-miterlimit="22.926" x=".32" y=".319" width="512.359" height="356.43" rx="27.231" ry="28.159"/></svg>